
<svg xmlns="http://www.w3.org/2000/svg" viewBox="0 0 800 800" style="background: black;">
  <g fill="#c3ff00">
    <path d="M200 285h200v80c0 44.18-35.82 80-80 80h-40c-44.18 0-80-35.82-80-80v-80z"/>
    <path d="M400 285h200v80c0 44.18-35.82 80-80 80h-40c-44.18 0-80-35.82-80-80v-80z"/>
    <path d="M200 435h200v80c0 44.18-35.82 80-80 80h-40c-44.18 0-80-35.82-80-80v-80z"/>
    <path d="M400 435h200v80c0 44.18-35.82 80-80 80h-40c-44.18 0-80-35.82-80-80v-80z"/>
  </g>
  <rect x="320" y="360" width="160" height="80" fill="black"/>
</svg>
