
<svg xmlns="http://www.w3.org/2000/svg" viewBox="0 0 32 32" style="background: black;">
  <g fill="#c3ff00">
    <path d="M8 11.4h8v3.2c0 1.77-1.43 3.2-3.2 3.2h-1.6c-1.77 0-3.2-1.43-3.2-3.2v-3.2z"/>
    <path d="M16 11.4h8v3.2c0 1.77-1.43 3.2-3.2 3.2h-1.6c-1.77 0-3.2-1.43-3.2-3.2v-3.2z"/>
    <path d="M8 17.4h8v3.2c0 1.77-1.43 3.2-3.2 3.2h-1.6c-1.77 0-3.2-1.43-3.2-3.2v-3.2z"/>
    <path d="M16 17.4h8v3.2c0 1.77-1.43 3.2-3.2 3.2h-1.6c-1.77 0-3.2-1.43-3.2-3.2v-3.2z"/>
  </g>
  <rect x="12.8" y="14.4" width="6.4" height="3.2" fill="black"/>
</svg>
